<svg width="205" height="52" viewBox="0 0 205 52" fill="none" xmlns="http://www.w3.org/2000/svg">
<g filter="url(#filter0_d_1_9)">
<mask id="path-1-outside-1_1_9" maskUnits="userSpaceOnUse" x="3" y="-1" width="199" height="46" fill="black">
<rect fill="white" x="3" y="-1" width="199" height="46"/>
<path d="M4.96307 1.27273H9.69318L20.8153 28.4389H21.1989L32.321 1.27273H37.0511V34H33.3438V9.13494H33.0241L22.7969 34H19.2173L8.99006 9.13494H8.67045V34H4.96307V1.27273ZM44.4859 34V9.45454H48.2572V34H44.4859ZM46.4035 5.36364C45.6684 5.36364 45.0345 5.11328 44.5019 4.61257C43.9798 4.11186 43.7188 3.50994 43.7188 2.80682C43.7188 2.10369 43.9798 1.50178 44.5019 1.00106C45.0345 0.500355 45.6684 0.25 46.4035 0.25C47.1386 0.25 47.7671 0.500355 48.2892 1.00106C48.8218 1.50178 49.0882 2.10369 49.0882 2.80682C49.0882 3.50994 48.8218 4.11186 48.2892 4.61257C47.7671 5.11328 47.1386 5.36364 46.4035 5.36364ZM57.5936 43.2045C56.9544 43.2045 56.3844 43.1513 55.8837 43.0447C55.383 42.9489 55.0368 42.853 54.845 42.7571L55.8038 39.4332C56.72 39.6676 57.5297 39.7528 58.2328 39.6889C58.9359 39.625 59.5591 39.3107 60.1025 38.7461C60.6564 38.1921 61.1625 37.2919 61.6206 36.0455L62.3237 34.1278L53.247 9.45454H57.3379L64.1135 29.0142H64.3691L71.1447 9.45454H75.2356L64.8166 37.5795C64.3478 38.8473 63.7672 39.8967 63.0748 40.7276C62.3823 41.5692 61.5779 42.1925 60.6618 42.5973C59.7562 43.0021 58.7335 43.2045 57.5936 43.2045ZM86.6894 34.5753C85.134 34.5753 83.7224 34.2823 82.4546 33.6964C81.1869 33.0998 80.1801 32.2422 79.4344 31.1236C78.6887 29.9943 78.3158 28.6307 78.3158 27.0327C78.3158 25.6264 78.5928 24.4865 79.1468 23.6129C79.7007 22.7287 80.4411 22.0362 81.368 21.5355C82.2948 21.0348 83.3176 20.6619 84.4362 20.4169C85.5654 20.1612 86.7 19.9588 87.8399 19.8097C89.3314 19.6179 90.5406 19.4741 91.4674 19.3782C92.4049 19.2717 93.0867 19.0959 93.5129 18.8509C93.9497 18.6058 94.1681 18.1797 94.1681 17.5724V17.4446C94.1681 15.8679 93.7366 14.6428 92.8737 13.7692C92.0214 12.8956 90.727 12.4588 88.9905 12.4588C87.1901 12.4588 85.7785 12.853 84.7558 13.6413C83.733 14.4297 83.0139 15.2713 82.5985 16.1662L79.0189 14.8878C79.6581 13.3963 80.5104 12.2351 81.5757 11.4041C82.6517 10.5625 83.8236 9.97656 85.0914 9.64631C86.3698 9.3054 87.6269 9.13494 88.8627 9.13494C89.651 9.13494 90.5566 9.23082 91.5793 9.42258C92.6127 9.60369 93.6088 9.98189 94.5676 10.5572C95.537 11.1325 96.3414 12.0007 96.9806 13.1619C97.6198 14.3232 97.9394 15.8786 97.9394 17.8281V34H94.1681V30.6761H93.9763C93.7206 31.2088 93.2945 31.7788 92.6979 32.386C92.1013 32.9933 91.3076 33.5099 90.3169 33.9361C89.3261 34.3622 88.1169 34.5753 86.6894 34.5753ZM87.2646 31.1875C88.7561 31.1875 90.0132 30.8945 91.036 30.3086C92.0693 29.7227 92.847 28.9663 93.3691 28.0394C93.9017 27.1126 94.1681 26.1378 94.1681 25.1151V21.6634C94.0083 21.8551 93.6567 22.0309 93.1134 22.1907C92.5807 22.3398 91.9628 22.473 91.2597 22.5902C90.5672 22.6967 89.8907 22.7926 89.2302 22.8778C88.5803 22.9524 88.053 23.0163 87.6482 23.0696C86.6681 23.1974 85.7519 23.4052 84.8996 23.6928C84.058 23.9698 83.3762 24.3906 82.8541 24.9553C82.3428 25.5092 82.0871 26.2656 82.0871 27.2244C82.0871 28.5348 82.5718 29.5256 83.5413 30.1967C84.5214 30.8572 85.7625 31.1875 87.2646 31.1875ZM105.334 34V1.27273H116.392C118.96 1.27273 121.059 1.73615 122.689 2.663C124.329 3.57919 125.544 4.82031 126.332 6.38636C127.12 7.95241 127.515 9.69957 127.515 11.6278C127.515 13.5561 127.12 15.3086 126.332 16.8853C125.554 18.462 124.35 19.7191 122.721 20.6566C121.091 21.5835 119.002 22.0469 116.456 22.0469H108.53V18.5312H116.328C118.086 18.5312 119.498 18.2276 120.563 17.6204C121.629 17.0131 122.401 16.1928 122.88 15.1594C123.37 14.1154 123.615 12.9382 123.615 11.6278C123.615 10.3175 123.37 9.1456 122.88 8.11221C122.401 7.07883 121.623 6.26918 120.547 5.68324C119.471 5.08665 118.044 4.78835 116.265 4.78835H109.297V34H105.334ZM143.095 34.5114C140.879 34.5114 138.935 33.984 137.262 32.9293C135.6 31.8746 134.301 30.3991 133.363 28.5028C132.436 26.6065 131.973 24.3906 131.973 21.8551C131.973 19.2983 132.436 17.0664 133.363 15.1594C134.301 13.2525 135.6 11.7717 137.262 10.717C138.935 9.66229 140.879 9.13494 143.095 9.13494C145.311 9.13494 147.25 9.66229 148.912 10.717C150.585 11.7717 151.884 13.2525 152.811 15.1594C153.749 17.0664 154.217 19.2983 154.217 21.8551C154.217 24.3906 153.749 26.6065 152.811 28.5028C151.884 30.3991 150.585 31.8746 148.912 32.9293C147.25 33.984 145.311 34.5114 143.095 34.5114ZM143.095 31.1236C144.778 31.1236 146.163 30.6921 147.25 29.8292C148.337 28.9663 149.141 27.8317 149.663 26.4254C150.185 25.0192 150.446 23.4957 150.446 21.8551C150.446 20.2145 150.185 18.6857 149.663 17.2688C149.141 15.8519 148.337 14.7067 147.25 13.8331C146.163 12.9595 144.778 12.5227 143.095 12.5227C141.412 12.5227 140.027 12.9595 138.94 13.8331C137.854 14.7067 137.049 15.8519 136.527 17.2688C136.005 18.6857 135.744 20.2145 135.744 21.8551C135.744 23.4957 136.005 25.0192 136.527 26.4254C137.049 27.8317 137.854 28.9663 138.94 29.8292C140.027 30.6921 141.412 31.1236 143.095 31.1236ZM159.974 34V9.45454H163.618V13.1619H163.873C164.321 11.9474 165.13 10.962 166.302 10.2056C167.474 9.44922 168.795 9.07102 170.265 9.07102C170.542 9.07102 170.889 9.07635 171.304 9.087C171.72 9.09766 172.034 9.11364 172.247 9.13494V12.9702C172.119 12.9382 171.826 12.8903 171.368 12.8263C170.921 12.7518 170.446 12.7145 169.946 12.7145C168.753 12.7145 167.687 12.9648 166.75 13.4656C165.823 13.9556 165.088 14.6374 164.544 15.511C164.012 16.3739 163.745 17.3594 163.745 18.4673V34H159.974ZM188.93 9.45454V12.6506H176.21V9.45454H188.93ZM179.917 3.57386H183.689V26.9688C183.689 28.0341 183.843 28.8331 184.152 29.3658C184.472 29.8878 184.877 30.2393 185.367 30.4205C185.867 30.5909 186.395 30.6761 186.949 30.6761C187.364 30.6761 187.705 30.6548 187.971 30.6122C188.238 30.5589 188.451 30.5163 188.611 30.4844L189.378 33.8722C189.122 33.968 188.765 34.0639 188.307 34.1598C187.849 34.2663 187.268 34.3196 186.565 34.3196C185.5 34.3196 184.456 34.0906 183.433 33.6325C182.421 33.1744 181.579 32.4766 180.908 31.5391C180.248 30.6016 179.917 29.419 179.917 27.9915V3.57386ZM197.352 34.2557C196.563 34.2557 195.887 33.9734 195.322 33.4087C194.758 32.8441 194.475 32.1676 194.475 31.3793C194.475 30.5909 194.758 29.9144 195.322 29.3498C195.887 28.7852 196.563 28.5028 197.352 28.5028C198.14 28.5028 198.816 28.7852 199.381 29.3498C199.946 29.9144 200.228 30.5909 200.228 31.3793C200.228 31.9013 200.095 32.3807 199.829 32.8175C199.573 33.2543 199.227 33.6058 198.79 33.8722C198.364 34.1278 197.884 34.2557 197.352 34.2557Z"/>
</mask>
<path d="M4.96307 1.27273H9.69318L20.8153 28.4389H21.1989L32.321 1.27273H37.0511V34H33.3438V9.13494H33.0241L22.7969 34H19.2173L8.99006 9.13494H8.67045V34H4.96307V1.27273ZM44.4859 34V9.45454H48.2572V34H44.4859ZM46.4035 5.36364C45.6684 5.36364 45.0345 5.11328 44.5019 4.61257C43.9798 4.11186 43.7188 3.50994 43.7188 2.80682C43.7188 2.10369 43.9798 1.50178 44.5019 1.00106C45.0345 0.500355 45.6684 0.25 46.4035 0.25C47.1386 0.25 47.7671 0.500355 48.2892 1.00106C48.8218 1.50178 49.0882 2.10369 49.0882 2.80682C49.0882 3.50994 48.8218 4.11186 48.2892 4.61257C47.7671 5.11328 47.1386 5.36364 46.4035 5.36364ZM57.5936 43.2045C56.9544 43.2045 56.3844 43.1513 55.8837 43.0447C55.383 42.9489 55.0368 42.853 54.845 42.7571L55.8038 39.4332C56.72 39.6676 57.5297 39.7528 58.2328 39.6889C58.9359 39.625 59.5591 39.3107 60.1025 38.7461C60.6564 38.1921 61.1625 37.2919 61.6206 36.0455L62.3237 34.1278L53.247 9.45454H57.3379L64.1135 29.0142H64.3691L71.1447 9.45454H75.2356L64.8166 37.5795C64.3478 38.8473 63.7672 39.8967 63.0748 40.7276C62.3823 41.5692 61.5779 42.1925 60.6618 42.5973C59.7562 43.0021 58.7335 43.2045 57.5936 43.2045ZM86.6894 34.5753C85.134 34.5753 83.7224 34.2823 82.4546 33.6964C81.1869 33.0998 80.1801 32.2422 79.4344 31.1236C78.6887 29.9943 78.3158 28.6307 78.3158 27.0327C78.3158 25.6264 78.5928 24.4865 79.1468 23.6129C79.7007 22.7287 80.4411 22.0362 81.368 21.5355C82.2948 21.0348 83.3176 20.6619 84.4362 20.4169C85.5654 20.1612 86.7 19.9588 87.8399 19.8097C89.3314 19.6179 90.5406 19.4741 91.4674 19.3782C92.4049 19.2717 93.0867 19.0959 93.5129 18.8509C93.9497 18.6058 94.1681 18.1797 94.1681 17.5724V17.4446C94.1681 15.8679 93.7366 14.6428 92.8737 13.7692C92.0214 12.8956 90.727 12.4588 88.9905 12.4588C87.1901 12.4588 85.7785 12.853 84.7558 13.6413C83.733 14.4297 83.0139 15.2713 82.5985 16.1662L79.0189 14.8878C79.6581 13.3963 80.5104 12.2351 81.5757 11.4041C82.6517 10.5625 83.8236 9.97656 85.0914 9.64631C86.3698 9.3054 87.6269 9.13494 88.8627 9.13494C89.651 9.13494 90.5566 9.23082 91.5793 9.42258C92.6127 9.60369 93.6088 9.98189 94.5676 10.5572C95.537 11.1325 96.3414 12.0007 96.9806 13.1619C97.6198 14.3232 97.9394 15.8786 97.9394 17.8281V34H94.1681V30.6761H93.9763C93.7206 31.2088 93.2945 31.7788 92.6979 32.386C92.1013 32.9933 91.3076 33.5099 90.3169 33.9361C89.3261 34.3622 88.1169 34.5753 86.6894 34.5753ZM87.2646 31.1875C88.7561 31.1875 90.0132 30.8945 91.036 30.3086C92.0693 29.7227 92.847 28.9663 93.3691 28.0394C93.9017 27.1126 94.1681 26.1378 94.1681 25.1151V21.6634C94.0083 21.8551 93.6567 22.0309 93.1134 22.1907C92.5807 22.3398 91.9628 22.473 91.2597 22.5902C90.5672 22.6967 89.8907 22.7926 89.2302 22.8778C88.5803 22.9524 88.053 23.0163 87.6482 23.0696C86.6681 23.1974 85.7519 23.4052 84.8996 23.6928C84.058 23.9698 83.3762 24.3906 82.8541 24.9553C82.3428 25.5092 82.0871 26.2656 82.0871 27.2244C82.0871 28.5348 82.5718 29.5256 83.5413 30.1967C84.5214 30.8572 85.7625 31.1875 87.2646 31.1875ZM105.334 34V1.27273H116.392C118.96 1.27273 121.059 1.73615 122.689 2.663C124.329 3.57919 125.544 4.82031 126.332 6.38636C127.12 7.95241 127.515 9.69957 127.515 11.6278C127.515 13.5561 127.12 15.3086 126.332 16.8853C125.554 18.462 124.35 19.7191 122.721 20.6566C121.091 21.5835 119.002 22.0469 116.456 22.0469H108.53V18.5312H116.328C118.086 18.5312 119.498 18.2276 120.563 17.6204C121.629 17.0131 122.401 16.1928 122.88 15.1594C123.37 14.1154 123.615 12.9382 123.615 11.6278C123.615 10.3175 123.37 9.1456 122.88 8.11221C122.401 7.07883 121.623 6.26918 120.547 5.68324C119.471 5.08665 118.044 4.78835 116.265 4.78835H109.297V34H105.334ZM143.095 34.5114C140.879 34.5114 138.935 33.984 137.262 32.9293C135.6 31.8746 134.301 30.3991 133.363 28.5028C132.436 26.6065 131.973 24.3906 131.973 21.8551C131.973 19.2983 132.436 17.0664 133.363 15.1594C134.301 13.2525 135.6 11.7717 137.262 10.717C138.935 9.66229 140.879 9.13494 143.095 9.13494C145.311 9.13494 147.25 9.66229 148.912 10.717C150.585 11.7717 151.884 13.2525 152.811 15.1594C153.749 17.0664 154.217 19.2983 154.217 21.8551C154.217 24.3906 153.749 26.6065 152.811 28.5028C151.884 30.3991 150.585 31.8746 148.912 32.9293C147.25 33.984 145.311 34.5114 143.095 34.5114ZM143.095 31.1236C144.778 31.1236 146.163 30.6921 147.25 29.8292C148.337 28.9663 149.141 27.8317 149.663 26.4254C150.185 25.0192 150.446 23.4957 150.446 21.8551C150.446 20.2145 150.185 18.6857 149.663 17.2688C149.141 15.8519 148.337 14.7067 147.25 13.8331C146.163 12.9595 144.778 12.5227 143.095 12.5227C141.412 12.5227 140.027 12.9595 138.94 13.8331C137.854 14.7067 137.049 15.8519 136.527 17.2688C136.005 18.6857 135.744 20.2145 135.744 21.8551C135.744 23.4957 136.005 25.0192 136.527 26.4254C137.049 27.8317 137.854 28.9663 138.94 29.8292C140.027 30.6921 141.412 31.1236 143.095 31.1236ZM159.974 34V9.45454H163.618V13.1619H163.873C164.321 11.9474 165.13 10.962 166.302 10.2056C167.474 9.44922 168.795 9.07102 170.265 9.07102C170.542 9.07102 170.889 9.07635 171.304 9.087C171.72 9.09766 172.034 9.11364 172.247 9.13494V12.9702C172.119 12.9382 171.826 12.8903 171.368 12.8263C170.921 12.7518 170.446 12.7145 169.946 12.7145C168.753 12.7145 167.687 12.9648 166.75 13.4656C165.823 13.9556 165.088 14.6374 164.544 15.511C164.012 16.3739 163.745 17.3594 163.745 18.4673V34H159.974ZM188.93 9.45454V12.6506H176.21V9.45454H188.93ZM179.917 3.57386H183.689V26.9688C183.689 28.0341 183.843 28.8331 184.152 29.3658C184.472 29.8878 184.877 30.2393 185.367 30.4205C185.867 30.5909 186.395 30.6761 186.949 30.6761C187.364 30.6761 187.705 30.6548 187.971 30.6122C188.238 30.5589 188.451 30.5163 188.611 30.4844L189.378 33.8722C189.122 33.968 188.765 34.0639 188.307 34.1598C187.849 34.2663 187.268 34.3196 186.565 34.3196C185.5 34.3196 184.456 34.0906 183.433 33.6325C182.421 33.1744 181.579 32.4766 180.908 31.5391C180.248 30.6016 179.917 29.419 179.917 27.9915V3.57386ZM197.352 34.2557C196.563 34.2557 195.887 33.9734 195.322 33.4087C194.758 32.8441 194.475 32.1676 194.475 31.3793C194.475 30.5909 194.758 29.9144 195.322 29.3498C195.887 28.7852 196.563 28.5028 197.352 28.5028C198.14 28.5028 198.816 28.7852 199.381 29.3498C199.946 29.9144 200.228 30.5909 200.228 31.3793C200.228 31.9013 200.095 32.3807 199.829 32.8175C199.573 33.2543 199.227 33.6058 198.79 33.8722C198.364 34.1278 197.884 34.2557 197.352 34.2557Z" fill="black"/>
<path d="M4.96307 1.27273V0.272726H3.96307V1.27273H4.96307ZM9.69318 1.27273L10.6186 0.893839L10.3643 0.272726H9.69318V1.27273ZM20.8153 28.4389L19.8899 28.8178L20.1442 29.4389H20.8153V28.4389ZM21.1989 28.4389V29.4389H21.87L22.1243 28.8178L21.1989 28.4389ZM32.321 1.27273V0.272726H31.6499L31.3956 0.893839L32.321 1.27273ZM37.0511 1.27273H38.0511V0.272726H37.0511V1.27273ZM37.0511 34V35H38.0511V34H37.0511ZM33.3438 34H32.3438V35H33.3438V34ZM33.3438 9.13494H34.3438V8.13494H33.3438V9.13494ZM33.0241 9.13494V8.13494H32.3542L32.0993 8.75455L33.0241 9.13494ZM22.7969 34V35H23.4668L23.7217 34.3804L22.7969 34ZM19.2173 34L18.2925 34.3804L18.5474 35H19.2173V34ZM8.99006 9.13494L9.91488 8.75455L9.66003 8.13494H8.99006V9.13494ZM8.67045 9.13494V8.13494H7.67045V9.13494H8.67045ZM8.67045 34V35H9.67045V34H8.67045ZM4.96307 34H3.96307V35H4.96307V34ZM4.96307 2.27273H9.69318V0.272726H4.96307V2.27273ZM8.76774 1.65161L19.8899 28.8178L21.7408 28.06L10.6186 0.893839L8.76774 1.65161ZM20.8153 29.4389H21.1989V27.4389H20.8153V29.4389ZM22.1243 28.8178L33.2465 1.65161L31.3956 0.893839L20.2734 28.06L22.1243 28.8178ZM32.321 2.27273H37.0511V0.272726H32.321V2.27273ZM36.0511 1.27273V34H38.0511V1.27273H36.0511ZM37.0511 33H33.3438V35H37.0511V33ZM34.3438 34V9.13494H32.3438V34H34.3438ZM33.3438 8.13494H33.0241V10.1349H33.3438V8.13494ZM32.0993 8.75455L21.872 33.6196L23.7217 34.3804L33.949 9.51534L32.0993 8.75455ZM22.7969 33H19.2173V35H22.7969V33ZM20.1422 33.6196L9.91488 8.75455L8.06523 9.51534L18.2925 34.3804L20.1422 33.6196ZM8.99006 8.13494H8.67045V10.1349H8.99006V8.13494ZM7.67045 9.13494V34H9.67045V9.13494H7.67045ZM8.67045 33H4.96307V35H8.67045V33ZM5.96307 34V1.27273H3.96307V34H5.96307ZM44.4859 34H43.4859V35H44.4859V34ZM44.4859 9.45454V8.45454H43.4859V9.45454H44.4859ZM48.2572 9.45454H49.2572V8.45454H48.2572V9.45454ZM48.2572 34V35H49.2572V34H48.2572ZM44.5019 4.61257L43.8096 5.33429L43.817 5.3412L44.5019 4.61257ZM44.5019 1.00106L43.8169 0.272399L43.8096 0.279383L44.5019 1.00106ZM48.2892 1.00106L47.5969 1.72278L47.6042 1.72969L48.2892 1.00106ZM48.2892 4.61257L47.6042 3.8839L47.5969 3.89089L48.2892 4.61257ZM45.4859 34V9.45454H43.4859V34H45.4859ZM44.4859 10.4545H48.2572V8.45454H44.4859V10.4545ZM47.2572 9.45454V34H49.2572V9.45454H47.2572ZM48.2572 33H44.4859V35H48.2572V33ZM46.4035 4.36364C45.9214 4.36364 45.5329 4.20926 45.1868 3.88394L43.817 5.3412C44.5362 6.0173 45.4155 6.36364 46.4035 6.36364V4.36364ZM45.1941 3.89089C44.8623 3.57266 44.7188 3.22881 44.7188 2.80682H42.7188C42.7188 3.79108 43.0974 4.65106 43.8096 5.33425L45.1941 3.89089ZM44.7188 2.80682C44.7188 2.38483 44.8623 2.04097 45.1941 1.72274L43.8096 0.279383C43.0974 0.96258 42.7188 1.82256 42.7188 2.80682H44.7188ZM45.1868 1.72969C45.5329 1.40437 45.9214 1.25 46.4035 1.25V-0.75C45.4155 -0.75 44.5362 -0.403663 43.817 0.272436L45.1868 1.72969ZM46.4035 1.25C46.8853 1.25 47.2645 1.40384 47.5969 1.72275L48.9814 0.279382C48.2698 -0.403135 47.3919 -0.75 46.4035 -0.75V1.25ZM47.6042 1.72969C47.9449 2.04987 48.0882 2.39176 48.0882 2.80682H50.0882C50.0882 1.81563 49.6988 0.953685 48.9741 0.272437L47.6042 1.72969ZM48.0882 2.80682C48.0882 3.22188 47.9449 3.56377 47.6042 3.88394L48.9741 5.3412C49.6988 4.65995 50.0882 3.79801 50.0882 2.80682H48.0882ZM47.5969 3.89089C47.2645 4.20979 46.8853 4.36364 46.4035 4.36364V6.36364C47.3919 6.36364 48.2698 6.01677 48.9814 5.33425L47.5969 3.89089ZM55.8837 43.0447L56.0918 42.0666L56.0818 42.0645L56.0718 42.0626L55.8837 43.0447ZM54.845 42.7571L53.8842 42.4799L53.6536 43.2794L54.3978 43.6515L54.845 42.7571ZM55.8038 39.4332L56.0516 38.4644L55.1118 38.224L54.843 39.1561L55.8038 39.4332ZM58.2328 39.6889L58.1422 38.693L58.2328 39.6889ZM60.1025 38.7461L59.3953 38.039L59.3885 38.0458L59.3819 38.0527L60.1025 38.7461ZM61.6206 36.0455L62.5592 36.3904L62.5594 36.3897L61.6206 36.0455ZM62.3237 34.1278L63.2626 34.4721L63.389 34.1273L63.2622 33.7826L62.3237 34.1278ZM53.247 9.45454V8.45454H51.8136L52.3085 9.7998L53.247 9.45454ZM57.3379 9.45454L58.2828 9.12722L58.0498 8.45454H57.3379V9.45454ZM64.1135 29.0142L63.1685 29.3415L63.4016 30.0142H64.1135V29.0142ZM64.3691 29.0142V30.0142H65.081L65.3141 29.3415L64.3691 29.0142ZM71.1447 9.45454V8.45454H70.4328L70.1998 9.12722L71.1447 9.45454ZM75.2356 9.45454L76.1733 9.80193L76.6725 8.45454H75.2356V9.45454ZM64.8166 37.5795L63.8789 37.2322L63.8786 37.2327L64.8166 37.5795ZM63.0748 40.7276L62.3065 40.0874L62.3025 40.0923L63.0748 40.7276ZM60.6618 42.5973L60.2576 41.6826L60.2536 41.6844L60.6618 42.5973ZM57.5936 42.2045C57.0079 42.2045 56.5097 42.1556 56.0918 42.0666L55.6756 44.0229C56.2591 44.147 56.9009 44.2045 57.5936 44.2045V42.2045ZM56.0718 42.0626C55.8379 42.0178 55.6542 41.9757 55.5154 41.9372C55.4464 41.9181 55.3932 41.9012 55.3535 41.8871C55.3339 41.8801 55.3191 41.8743 55.3084 41.8698C55.3031 41.8676 55.2991 41.8659 55.2963 41.8646C55.295 41.864 55.2939 41.8635 55.2932 41.8632C55.2925 41.8628 55.2922 41.8627 55.2922 41.8627L54.3978 43.6515C54.7254 43.8153 55.1944 43.9309 55.6956 44.0269L56.0718 42.0626ZM55.8058 43.0343L56.7646 39.7104L54.843 39.1561L53.8842 42.4799L55.8058 43.0343ZM55.556 40.402C56.5475 40.6557 57.4755 40.7619 58.3233 40.6848L58.1422 38.693C57.5838 38.7438 56.8925 38.6796 56.0516 38.4644L55.556 40.402ZM58.3233 40.6848C59.2928 40.5967 60.1326 40.157 60.823 39.4395L59.3819 38.0527C58.9857 38.4644 58.579 38.6533 58.1422 38.693L58.3233 40.6848ZM60.8096 39.4532C61.5137 38.7491 62.0812 37.691 62.5592 36.3904L60.6819 35.7005C60.2437 36.8928 59.7992 37.6352 59.3953 38.039L60.8096 39.4532ZM62.5594 36.3897L63.2626 34.4721L61.3848 33.7836L60.6817 35.7012L62.5594 36.3897ZM63.2622 33.7826L54.1855 9.10929L52.3085 9.7998L61.3852 34.4731L63.2622 33.7826ZM53.247 10.4545H57.3379V8.45454H53.247V10.4545ZM56.393 9.78187L63.1685 29.3415L65.0584 28.6869L58.2828 9.12722L56.393 9.78187ZM64.1135 30.0142H64.3691V28.0142H64.1135V30.0142ZM65.3141 29.3415L72.0896 9.78187L70.1998 9.12722L63.4242 28.6869L65.3141 29.3415ZM71.1447 10.4545H75.2356V8.45454H71.1447V10.4545ZM74.2979 9.10716L63.8789 37.2322L65.7543 37.9269L76.1733 9.80193L74.2979 9.10716ZM63.8786 37.2327C63.4399 38.4193 62.9105 39.3626 62.3065 40.0874L63.843 41.3678C64.6239 40.4307 65.2558 39.2753 65.7545 37.9263L63.8786 37.2327ZM62.3025 40.0923C61.7004 40.8241 61.0187 41.3463 60.2576 41.6826L61.0659 43.512C62.1372 43.0386 63.0642 42.3144 63.847 41.363L62.3025 40.0923ZM60.2536 41.6844C59.4943 42.0238 58.6137 42.2045 57.5936 42.2045V44.2045C58.8532 44.2045 60.0181 43.9804 61.0699 43.5102L60.2536 41.6844ZM82.4546 33.6964L82.0288 34.6012L82.0351 34.6041L82.4546 33.6964ZM79.4344 31.1236L78.5999 31.6746L78.6023 31.6783L79.4344 31.1236ZM79.1468 23.6129L79.9913 24.1485L79.9942 24.1438L79.1468 23.6129ZM84.4362 20.4169L84.6501 21.3938L84.657 21.3922L84.4362 20.4169ZM87.8399 19.8097L87.7124 18.8178L87.7102 18.8181L87.8399 19.8097ZM91.4674 19.3782L91.5703 20.3729L91.5803 20.3718L91.4674 19.3782ZM93.5129 18.8509L93.0236 17.9787L93.0144 17.9839L93.5129 18.8509ZM92.8737 13.7692L92.1579 14.4675L92.1622 14.4719L92.8737 13.7692ZM84.7558 13.6413L85.3663 14.4333L84.7558 13.6413ZM82.5985 16.1662L82.2621 17.1079L83.1213 17.4148L83.5055 16.5873L82.5985 16.1662ZM79.0189 14.8878L78.0998 14.4939L77.6807 15.4717L78.6826 15.8295L79.0189 14.8878ZM81.5757 11.4041L82.1908 12.1926L82.1918 12.1918L81.5757 11.4041ZM85.0914 9.64631L85.3434 10.614L85.349 10.6125L85.0914 9.64631ZM91.5793 9.42258L91.395 10.4055L91.4067 10.4076L91.5793 9.42258ZM94.5676 10.5572L94.0531 11.4147L94.0572 11.4172L94.5676 10.5572ZM96.9806 13.1619L96.1045 13.6442L96.9806 13.1619ZM97.9394 34V35H98.9394V34H97.9394ZM94.1681 34H93.1681V35H94.1681V34ZM94.1681 30.6761H95.1681V29.6761H94.1681V30.6761ZM93.9763 30.6761V29.6761H93.3471L93.0748 30.2434L93.9763 30.6761ZM92.6979 32.386L93.4112 33.0868L92.6979 32.386ZM90.3168 33.9361L89.9217 33.0174L90.3168 33.9361ZM91.036 30.3086L90.5427 29.4387L90.5388 29.4409L91.036 30.3086ZM93.369 28.0394L92.502 27.5411L92.4977 27.5487L93.369 28.0394ZM94.1681 21.6634H95.1681V18.9013L93.3998 21.0232L94.1681 21.6634ZM93.1134 22.1907L93.383 23.1537L93.3955 23.1501L93.1134 22.1907ZM91.2597 22.5902L91.4117 23.5786L91.4241 23.5766L91.2597 22.5902ZM89.2302 22.8778L89.3442 23.8714L89.3582 23.8696L89.2302 22.8778ZM87.6482 23.0696L87.7775 24.0612L87.7786 24.0611L87.6482 23.0696ZM84.8996 23.6928L85.2122 24.6427L85.2194 24.6403L84.8996 23.6928ZM82.8541 24.9553L82.1199 24.2764L82.1193 24.277L82.8541 24.9553ZM83.5413 30.1967L82.972 31.019L82.9824 31.026L83.5413 30.1967ZM86.6894 33.5753C85.2623 33.5753 83.9962 33.3072 82.8742 32.7886L82.0351 34.6041C83.4486 35.2574 85.0057 35.5753 86.6894 35.5753V33.5753ZM82.8804 32.7916C81.7702 32.2691 80.9068 31.5294 80.2664 30.5689L78.6023 31.6783C79.4535 32.955 80.6036 33.9305 82.0288 34.6012L82.8804 32.7916ZM80.2689 30.5725C79.6494 29.6345 79.3158 28.4709 79.3158 27.0327H77.3158C77.3158 28.7905 77.7279 30.3541 78.5999 31.6746L80.2689 30.5725ZM79.3158 27.0327C79.3158 25.75 79.5692 24.814 79.9913 24.1485L78.3022 23.0774C77.6163 24.159 77.3158 25.5028 77.3158 27.0327H79.3158ZM79.9942 24.1438C80.4554 23.4076 81.067 22.8347 81.8433 22.4153L80.8927 20.6557C79.8153 21.2377 78.946 22.0498 78.2993 23.082L79.9942 24.1438ZM81.8433 22.4153C82.6812 21.9627 83.6149 21.6205 84.6501 21.3937L84.2222 19.4401C83.0203 19.7033 81.9085 20.1069 80.8927 20.6557L81.8433 22.4153ZM84.657 21.3922C85.7564 21.1433 86.8606 20.9463 87.9697 20.8012L87.7102 18.8181C86.5395 18.9713 85.3745 19.1791 84.2153 19.4416L84.657 21.3922ZM87.9675 20.8015C89.455 20.6102 90.6551 20.4676 91.5703 20.3729L91.3645 18.3835C90.426 18.4806 89.2078 18.6256 87.7124 18.8178L87.9675 20.8015ZM91.5803 20.3718C92.5517 20.2614 93.4019 20.0682 94.0113 19.7178L93.0144 17.9839C92.7716 18.1236 92.2582 18.2819 91.3545 18.3846L91.5803 20.3718ZM94.0021 19.723C94.8264 19.2606 95.1681 18.4504 95.1681 17.5724H93.1681C93.1681 17.9089 93.0729 17.9511 93.0236 17.9787L94.0021 19.723ZM95.1681 17.5724V17.4446H93.1681V17.5724H95.1681ZM95.1681 17.4446C95.1681 15.6829 94.6814 14.1762 93.5851 13.0664L92.1622 14.4719C92.7918 15.1093 93.1681 16.0529 93.1681 17.4446H95.1681ZM93.5895 13.0709C92.4813 11.935 90.8811 11.4588 88.9905 11.4588V13.4588C90.5729 13.4588 91.5615 13.8562 92.1579 14.4675L93.5895 13.0709ZM88.9905 11.4588C87.0546 11.4588 85.4003 11.8819 84.1453 12.8493L85.3663 14.4333C86.1567 13.8241 87.3256 13.4588 88.9905 13.4588V11.4588ZM84.1453 12.8493C83.0332 13.7065 82.1922 14.6666 81.6914 15.7451L83.5055 16.5873C83.8357 15.876 84.4328 15.1529 85.3663 14.4333L84.1453 12.8493ZM82.9348 15.2245L79.3552 13.946L78.6826 15.8295L82.2621 17.1079L82.9348 15.2245ZM79.9381 15.2817C80.5241 13.9142 81.2828 12.9008 82.1908 12.1926L80.9607 10.6156C79.738 11.5693 78.7921 12.8784 78.0998 14.4939L79.9381 15.2817ZM82.1918 12.1918C83.1648 11.4308 84.2137 10.9083 85.3434 10.614L84.8393 8.6786C83.4335 9.04482 82.1387 9.69423 80.9596 10.6164L82.1918 12.1918ZM85.349 10.6125C86.5493 10.2925 87.7198 10.1349 88.8627 10.1349V8.13494C87.534 8.13494 86.1902 8.31832 84.8337 8.68007L85.349 10.6125ZM88.8627 10.1349C89.5732 10.1349 90.415 10.2217 91.395 10.4055L91.7636 8.43971C90.6981 8.23994 89.7288 8.13494 88.8627 8.13494V10.1349ZM91.4067 10.4076C92.3115 10.5661 93.1925 10.8983 94.0531 11.4147L95.0821 9.69968C94.0251 9.06548 92.9139 8.64124 91.7519 8.4376L91.4067 10.4076ZM94.0572 11.4172C94.8482 11.8865 95.5361 12.6115 96.1045 13.6442L97.8566 12.6797C97.1466 11.3899 96.2259 10.3784 95.0779 9.69719L94.0572 11.4172ZM96.1045 13.6442C96.633 14.6043 96.9394 15.9734 96.9394 17.8281H98.9394C98.9394 15.7837 98.6065 14.042 97.8566 12.6797L96.1045 13.6442ZM96.9394 17.8281V34H98.9394V17.8281H96.9394ZM97.9394 33H94.1681V35H97.9394V33ZM95.1681 34V30.6761H93.1681V34H95.1681ZM94.1681 29.6761H93.9763V31.6761H94.1681V29.6761ZM93.0748 30.2434C92.8826 30.6438 92.535 31.1249 91.9846 31.6852L93.4112 33.0868C94.0539 32.4327 94.5586 31.7739 94.8778 31.1089L93.0748 30.2434ZM91.9846 31.6852C91.4996 32.1788 90.8239 32.6294 89.9217 33.0174L90.712 34.8547C91.7914 34.3905 92.703 33.8077 93.4112 33.0868L91.9846 31.6852ZM89.9217 33.0174C89.0891 33.3756 88.0228 33.5753 86.6894 33.5753V35.5753C88.211 35.5753 89.563 35.3489 90.712 34.8547L89.9217 33.0174ZM87.2646 32.1875C88.885 32.1875 90.3239 31.869 91.5331 31.1763L90.5388 29.4409C89.7026 29.92 88.6272 30.1875 87.2646 30.1875V32.1875ZM91.5292 31.1785C92.7018 30.5136 93.619 29.6334 94.2404 28.5302L92.4977 27.5487C92.0751 28.2992 91.4369 28.9317 90.5427 29.4387L91.5292 31.1785ZM94.2361 28.5377C94.8518 27.4664 95.1681 26.3207 95.1681 25.1151H93.1681C93.1681 25.9549 92.9517 26.7588 92.502 27.5411L94.2361 28.5377ZM95.1681 25.1151V21.6634H93.1681V25.1151H95.1681ZM93.3998 21.0232C93.4444 20.9697 93.4529 20.9868 93.3373 21.0446C93.232 21.0972 93.0686 21.1615 92.8312 21.2313L93.3955 23.1501C93.7015 23.0601 93.9855 22.9566 94.2318 22.8334C94.4678 22.7154 94.7319 22.5488 94.9363 22.3035L93.3998 21.0232ZM92.8437 21.2277C92.3539 21.3649 91.7725 21.4909 91.0953 21.6038L91.4241 23.5766C92.1531 23.4551 92.8075 23.3148 93.383 23.1537L92.8437 21.2277ZM91.1076 21.6018C90.4228 21.7072 89.7543 21.8019 89.1022 21.8861L89.3582 23.8696C90.0271 23.7833 90.7117 23.6863 91.4117 23.5786L91.1076 21.6018ZM89.1162 21.8844C88.4637 21.9592 87.9303 22.0239 87.5177 22.0781L87.7786 24.0611C88.1757 24.0088 88.697 23.9456 89.3442 23.8713L89.1162 21.8844ZM87.5188 22.078C86.4802 22.2135 85.4997 22.4349 84.5798 22.7453L85.2194 24.6403C86.004 24.3755 86.8559 24.1814 87.7775 24.0612L87.5188 22.078ZM84.587 22.7429C83.6089 23.0649 82.7737 23.5692 82.1199 24.2764L83.5884 25.6341C83.9787 25.212 84.5071 24.8748 85.2122 24.6427L84.587 22.7429ZM82.1193 24.277C81.3948 25.0619 81.0871 26.0851 81.0871 27.2244H83.0871C83.0871 26.4461 83.2907 25.9566 83.5889 25.6335L82.1193 24.277ZM81.0871 27.2244C81.0871 28.8203 81.6995 30.1379 82.9721 31.0189L84.1105 29.3745C83.4441 28.9132 83.0871 28.2493 83.0871 27.2244H81.0871ZM82.9824 31.026C84.1673 31.8245 85.6172 32.1875 87.2646 32.1875V30.1875C85.9078 30.1875 84.8755 29.89 84.1001 29.3675L82.9824 31.026ZM105.334 34H104.334V35H105.334V34ZM105.334 1.27273V0.272726H104.334V1.27273H105.334ZM122.689 2.663L122.194 3.53231L122.201 3.53608L122.689 2.663ZM126.332 6.38636L125.439 6.83601V6.83601L126.332 6.38636ZM126.332 16.8853L125.438 16.4381L125.435 16.4429L126.332 16.8853ZM122.721 20.6566L123.215 21.5259L123.219 21.5234L122.721 20.6566ZM108.53 22.0469H107.53V23.0469H108.53V22.0469ZM108.53 18.5312V17.5312H107.53V18.5312H108.53ZM120.563 17.6204L120.068 16.7516L120.563 17.6204ZM122.88 15.1594L121.975 14.7345L121.973 14.7386L122.88 15.1594ZM122.88 8.11222L121.973 8.53307L121.977 8.5407L122.88 8.11222ZM120.547 5.68324L120.062 6.55783L120.069 6.56147L120.547 5.68324ZM109.297 4.78835V3.78835H108.297V4.78835H109.297ZM109.297 34V35H110.297V34H109.297ZM106.334 34V1.27273H104.334V34H106.334ZM105.334 2.27273H116.392V0.272726H105.334V2.27273ZM116.392 2.27273C118.848 2.27273 120.76 2.71699 122.194 3.53229L123.183 1.79371C121.357 0.755305 119.072 0.272726 116.392 0.272726V2.27273ZM122.201 3.53608C123.68 4.36218 124.747 5.46147 125.439 6.83601L127.225 5.93672C126.34 4.17916 124.978 2.7962 123.176 1.78991L122.201 3.53608ZM125.439 6.83601C126.15 8.24908 126.515 9.8399 126.515 11.6278H128.515C128.515 9.55925 128.091 7.65575 127.225 5.93672L125.439 6.83601ZM126.515 11.6278C126.515 13.4157 126.15 15.0129 125.438 16.4381L127.226 17.3325C128.091 15.6043 128.515 13.6965 128.515 11.6278H126.515ZM125.435 16.4429C124.751 17.8292 123.693 18.9439 122.222 19.7898L123.219 21.5234C125.008 20.4943 126.357 19.0948 127.229 17.3277L125.435 16.4429ZM122.226 19.7873C120.791 20.6032 118.889 21.0469 116.456 21.0469V23.0469C119.116 23.0469 121.39 22.5637 123.215 21.5259L122.226 19.7873ZM116.456 21.0469H108.53V23.0469H116.456V21.0469ZM109.53 22.0469V18.5312H107.53V22.0469H109.53ZM108.53 19.5312H116.328V17.5312H108.53V19.5312ZM116.328 19.5312C118.189 19.5312 119.791 19.2117 121.058 18.4892L120.068 16.7516C119.205 17.2435 117.983 17.5312 116.328 17.5312V19.5312ZM121.058 18.4892C122.29 17.7873 123.214 16.8168 123.787 15.5803L121.973 14.7386C121.588 15.5689 120.967 16.239 120.068 16.7516L121.058 18.4892ZM123.786 15.5844C124.346 14.3903 124.615 13.065 124.615 11.6278H122.615C122.615 12.8114 122.395 13.8405 121.975 14.7345L123.786 15.5844ZM124.615 11.6278C124.615 10.1909 124.346 8.86926 123.784 7.68373L121.977 8.5407C122.395 9.42193 122.615 10.4441 122.615 11.6278H124.615ZM123.787 7.69138C123.211 6.44848 122.275 5.48528 121.025 4.80501L120.069 6.56147C120.972 7.05307 121.591 7.70919 121.973 8.53305L123.787 7.69138ZM121.032 4.80867C119.756 4.10121 118.143 3.78835 116.265 3.78835V5.78835C117.945 5.78835 119.186 6.07208 120.062 6.5578L121.032 4.80867ZM116.265 3.78835H109.297V5.78835H116.265V3.78835ZM108.297 4.78835V34H110.297V4.78835H108.297ZM109.297 33H105.334V35H109.297V33ZM137.262 32.9293L136.727 33.7737L136.729 33.7752L137.262 32.9293ZM133.363 28.5028L132.465 28.942L132.467 28.946L133.363 28.5028ZM133.363 15.1594L132.466 14.7183L132.464 14.7223L133.363 15.1594ZM137.262 10.717L136.729 9.8711L136.727 9.87264L137.262 10.717ZM148.912 10.717L148.376 11.5613L148.379 11.5628L148.912 10.717ZM152.811 15.1594L151.912 15.5966L151.914 15.6006L152.811 15.1594ZM152.811 28.5028L151.915 28.0597L151.913 28.0637L152.811 28.5028ZM148.912 32.9293L148.379 32.0835L148.376 32.085L148.912 32.9293ZM147.25 29.8292L146.628 29.0461L147.25 29.8292ZM149.663 26.4254L150.6 26.7734L149.663 26.4254ZM149.663 17.2688L150.601 16.9231L149.663 17.2688ZM147.25 13.8331L147.877 13.0537L147.25 13.8331ZM138.94 13.8331L138.314 13.0537L138.94 13.8331ZM136.527 17.2688L135.589 16.9231L136.527 17.2688ZM136.527 26.4254L135.59 26.7734L136.527 26.4254ZM138.94 29.8292L139.562 29.0461L138.94 29.8292ZM143.095 33.5114C141.045 33.5114 139.29 33.0256 137.796 32.0835L136.729 33.7752C138.58 34.9424 140.714 35.5114 143.095 35.5114V33.5114ZM137.798 32.085C136.303 31.1358 135.122 29.8045 134.26 28.0597L132.467 28.946C133.479 30.9938 134.898 32.6135 136.727 33.7737L137.798 32.085ZM134.262 28.0637C133.414 26.329 132.973 24.2687 132.973 21.8551H130.973C130.973 24.5126 131.459 26.8841 132.465 28.942L134.262 28.0637ZM132.973 21.8551C132.973 19.419 133.414 17.3421 134.263 15.5966L132.464 14.7223C131.459 16.7907 130.973 19.1776 130.973 21.8551H132.973ZM134.261 15.6006C135.124 13.8451 136.304 12.5096 137.798 11.5613L136.727 9.87264C134.897 11.0337 133.478 12.6598 132.466 14.7183L134.261 15.6006ZM137.796 11.5628C139.29 10.6207 141.045 10.1349 143.095 10.1349V8.13494C140.714 8.13494 138.58 8.7039 136.729 9.8711L137.796 11.5628ZM143.095 10.1349C145.146 10.1349 146.894 10.6207 148.376 11.5613L149.448 9.87264C147.606 8.70387 145.476 8.13494 143.095 8.13494V10.1349ZM148.379 11.5628C149.882 12.5108 151.06 13.8447 151.912 15.5966L153.71 14.7223C152.708 12.6603 151.287 11.0325 149.445 9.8711L148.379 11.5628ZM151.914 15.6006C152.771 17.3452 153.217 19.4206 153.217 21.8551H155.217C155.217 19.176 154.726 16.7876 153.708 14.7183L151.914 15.6006ZM153.217 21.8551C153.217 24.2671 152.772 26.3259 151.915 28.0597L153.708 28.946C154.725 26.8872 155.217 24.5141 155.217 21.8551H153.217ZM151.913 28.0637C151.062 29.8049 149.883 31.1346 148.379 32.0835L149.445 33.7752C151.286 32.6147 152.707 30.9934 153.71 28.942L151.913 28.0637ZM148.376 32.085C146.894 33.0256 145.146 33.5114 143.095 33.5114V35.5114C145.476 35.5114 147.606 34.9424 149.448 33.7737L148.376 32.085ZM143.095 32.1236C144.955 32.1236 146.573 31.6437 147.872 30.6123L146.628 29.0461C145.754 29.7405 144.602 30.1236 143.095 30.1236V32.1236ZM147.872 30.6123C149.113 29.6267 150.02 28.3364 150.6 26.7734L148.726 26.0774C148.262 27.3269 147.56 28.3058 146.628 29.0461L147.872 30.6123ZM150.6 26.7734C151.168 25.2458 151.446 23.6034 151.446 21.8551H149.446C149.446 23.3881 149.202 24.7925 148.726 26.0774L150.6 26.7734ZM151.446 21.8551C151.446 20.1067 151.168 18.4599 150.601 16.9231L148.725 17.6145C149.202 18.9115 149.446 20.3222 149.446 21.8551H151.446ZM150.601 16.9231C150.022 15.3507 149.116 14.0503 147.877 13.0537L146.623 14.6125C147.557 15.3631 148.26 16.3531 148.725 17.6145L150.601 16.9231ZM147.877 13.0537C146.578 12.0095 144.957 11.5227 143.095 11.5227V13.5227C144.599 13.5227 145.749 13.9096 146.623 14.6125L147.877 13.0537ZM143.095 11.5227C141.233 11.5227 139.613 12.0095 138.314 13.0537L139.567 14.6125C140.441 13.9096 141.591 13.5227 143.095 13.5227V11.5227ZM138.314 13.0537C137.074 14.0503 136.168 15.3507 135.589 16.9231L137.466 17.6145C137.93 16.3531 138.633 15.3631 139.567 14.6125L138.314 13.0537ZM135.589 16.9231C135.023 18.4599 134.744 20.1067 134.744 21.8551H136.744C136.744 20.3222 136.988 18.9115 137.466 17.6145L135.589 16.9231ZM134.744 21.8551C134.744 23.6034 135.023 25.2458 135.59 26.7734L137.465 26.0774C136.988 24.7925 136.744 23.3881 136.744 21.8551H134.744ZM135.59 26.7734C136.17 28.3364 137.077 29.6267 138.318 30.6123L139.562 29.0461C138.63 28.3058 137.929 27.3269 137.465 26.0774L135.59 26.7734ZM138.318 30.6123C139.617 31.6437 141.236 32.1236 143.095 32.1236V30.1236C141.588 30.1236 140.437 29.7405 139.562 29.0461L138.318 30.6123ZM159.974 34H158.974V35H159.974V34ZM159.974 9.45454V8.45454H158.974V9.45454H159.974ZM163.618 9.45454H164.618V8.45454H163.618V9.45454ZM163.618 13.1619H162.618V14.1619H163.618V13.1619ZM163.873 13.1619V14.1619H164.571L164.812 13.5076L163.873 13.1619ZM166.302 10.2056L165.76 9.36543L166.302 10.2056ZM172.247 9.13494H173.247V8.22996L172.346 8.13991L172.247 9.13494ZM172.247 12.9702L172.004 13.9403L173.247 14.2509V12.9702H172.247ZM171.368 12.8263L171.204 13.8127L171.217 13.8149L171.23 13.8168L171.368 12.8263ZM166.75 13.4656L167.217 14.3496L167.221 14.3476L166.75 13.4656ZM164.544 15.511L163.695 14.9829L163.694 14.9857L164.544 15.511ZM163.745 34V35H164.745V34H163.745ZM160.974 34V9.45454H158.974V34H160.974ZM159.974 10.4545H163.618V8.45454H159.974V10.4545ZM162.618 9.45454V13.1619H164.618V9.45454H162.618ZM163.618 14.1619H163.873V12.1619H163.618V14.1619ZM164.812 13.5076C165.178 12.5127 165.84 11.6943 166.845 11.0458L165.76 9.36543C164.421 10.2297 163.463 11.3822 162.935 12.8162L164.812 13.5076ZM166.845 11.0458C167.846 10.3995 168.977 10.071 170.265 10.071V8.07102C168.614 8.07102 167.102 8.49894 165.76 9.36543L166.845 11.0458ZM170.265 10.071C170.531 10.071 170.868 10.0761 171.278 10.0867L171.33 8.08733C170.909 8.07655 170.554 8.07102 170.265 8.07102V10.071ZM171.278 10.0867C171.688 10.0972 171.972 10.1124 172.147 10.13L172.346 8.13991C172.096 8.11482 171.752 8.09815 171.33 8.08733L171.278 10.0867ZM171.247 9.13494V12.9702H173.247V9.13494H171.247ZM172.489 12C172.3 11.9525 171.949 11.8978 171.506 11.8359L171.23 13.8168C171.703 13.8828 171.939 13.9239 172.004 13.9403L172.489 12ZM171.532 11.84C171.025 11.7554 170.496 11.7145 169.946 11.7145V13.7145C170.397 13.7145 170.816 13.7481 171.204 13.8127L171.532 11.84ZM169.946 11.7145C168.609 11.7145 167.378 11.9963 166.279 12.5835L167.221 14.3476C167.996 13.9334 168.896 13.7145 169.946 13.7145V11.7145ZM166.282 12.5815C165.202 13.1527 164.334 13.956 163.695 14.9829L165.394 16.0391C165.842 15.3189 166.444 14.7586 167.217 14.3496L166.282 12.5815ZM163.694 14.9857C163.054 16.021 162.745 17.1916 162.745 18.4673H164.745C164.745 17.5271 164.969 16.7269 165.395 16.0363L163.694 14.9857ZM162.745 18.4673V34H164.745V18.4673H162.745ZM163.745 33H159.974V35H163.745V33ZM188.93 9.45454H189.93V8.45454H188.93V9.45454ZM188.93 12.6506V13.6506H189.93V12.6506H188.93ZM176.21 12.6506H175.21V13.6506H176.21V12.6506ZM176.21 9.45454V8.45454H175.21V9.45454H176.21ZM179.917 3.57386V2.57386H178.917V3.57386H179.917ZM183.689 3.57386H184.689V2.57386H183.689V3.57386ZM184.152 29.3658L183.287 29.8675L183.293 29.8778L183.299 29.8879L184.152 29.3658ZM185.367 30.4205L185.02 31.3584L185.032 31.3629L185.044 31.3671L185.367 30.4205ZM187.971 30.6122L188.129 31.5997L188.148 31.5966L188.167 31.5928L187.971 30.6122ZM188.611 30.4844L189.586 30.2635L189.371 29.3126L188.414 29.5038L188.611 30.4844ZM189.378 33.8722L189.729 34.8085L190.546 34.5022L190.353 33.6513L189.378 33.8722ZM188.307 34.1598L188.102 33.181L188.091 33.1833L188.08 33.1858L188.307 34.1598ZM183.433 33.6325L183.021 34.5435L183.024 34.5451L183.433 33.6325ZM180.908 31.5391L180.091 32.115L180.095 32.1212L180.908 31.5391ZM187.93 9.45454V12.6506H189.93V9.45454H187.93ZM188.93 11.6506H176.21V13.6506H188.93V11.6506ZM177.21 12.6506V9.45454H175.21V12.6506H177.21ZM176.21 10.4545H188.93V8.45454H176.21V10.4545ZM179.917 4.57386H183.689V2.57386H179.917V4.57386ZM182.689 3.57386V26.9688H184.689V3.57386H182.689ZM182.689 26.9688C182.689 28.098 182.847 29.1081 183.287 29.8675L185.017 28.864C184.84 28.5581 184.689 27.9702 184.689 26.9688H182.689ZM183.299 29.8879C183.715 30.5672 184.284 31.0866 185.02 31.3584L185.713 29.4825C185.469 29.3921 185.228 29.2084 185.005 28.8436L183.299 29.8879ZM185.044 31.3671C185.654 31.5745 186.29 31.6761 186.949 31.6761V29.6761C186.499 29.6761 186.081 29.6073 185.689 29.4738L185.044 31.3671ZM186.949 31.6761C187.392 31.6761 187.791 31.6538 188.129 31.5997L187.813 29.6248C187.619 29.6558 187.336 29.6761 186.949 29.6761V31.6761ZM188.167 31.5928C188.434 31.5395 188.647 31.4969 188.807 31.465L188.414 29.5038C188.255 29.5358 188.042 29.5784 187.775 29.6316L188.167 31.5928ZM187.635 30.7052L188.402 34.093L190.353 33.6513L189.586 30.2635L187.635 30.7052ZM189.026 32.9358C188.84 33.0057 188.54 33.0893 188.102 33.181L188.512 35.1386C188.99 35.0385 189.404 34.9304 189.729 34.8085L189.026 32.9358ZM188.08 33.1858C187.723 33.2688 187.226 33.3196 186.565 33.3196V35.3196C187.311 35.3196 187.974 35.2638 188.533 35.1338L188.08 33.1858ZM186.565 33.3196C185.648 33.3196 184.743 33.1234 183.842 32.7198L183.024 34.5451C184.169 35.0577 185.352 35.3196 186.565 35.3196V33.3196ZM183.845 32.7214C183 32.3386 182.294 31.7571 181.721 30.957L180.095 32.1212C180.864 33.196 181.842 34.0101 183.021 34.5435L183.845 32.7214ZM181.726 30.9631C181.21 30.2315 180.917 29.2638 180.917 27.9915H178.917C178.917 29.5743 179.285 30.9716 180.091 32.115L181.726 30.9631ZM180.917 27.9915V3.57386H178.917V27.9915H180.917ZM195.322 33.4087L196.029 32.7016L195.322 33.4087ZM199.381 29.3498L200.088 28.6427L199.381 29.3498ZM199.829 32.8175L198.975 32.2969L198.97 32.3045L198.966 32.3123L199.829 32.8175ZM198.79 33.8722L199.304 34.7297L199.31 34.726L198.79 33.8722ZM197.352 33.2557C196.832 33.2557 196.409 33.0814 196.029 32.7016L194.615 34.1158C195.365 34.8653 196.294 35.2557 197.352 35.2557V33.2557ZM196.029 32.7016C195.649 32.3218 195.475 31.8986 195.475 31.3793H193.475C193.475 32.4366 193.866 33.3664 194.615 34.1158L196.029 32.7016ZM195.475 31.3793C195.475 30.8599 195.649 30.4367 196.029 30.0569L194.615 28.6427C193.866 29.3921 193.475 30.3219 193.475 31.3793H195.475ZM196.029 30.0569C196.409 29.6771 196.832 29.5028 197.352 29.5028V27.5028C196.294 27.5028 195.365 27.8932 194.615 28.6427L196.029 30.0569ZM197.352 29.5028C197.871 29.5028 198.294 29.6771 198.674 30.0569L200.088 28.6427C199.339 27.8932 198.409 27.5028 197.352 27.5028V29.5028ZM198.674 30.0569C199.054 30.4367 199.228 30.8599 199.228 31.3793H201.228C201.228 30.3219 200.838 29.3921 200.088 28.6427L198.674 30.0569ZM199.228 31.3793C199.228 31.7216 199.143 32.0202 198.975 32.2969L200.682 33.3381C201.046 32.7411 201.228 32.081 201.228 31.3793H199.228ZM198.966 32.3123C198.794 32.6047 198.566 32.8372 198.269 33.0184L199.31 34.726C199.887 34.3745 200.351 33.9038 200.692 33.3227L198.966 32.3123ZM198.275 33.0147C198.016 33.1704 197.717 33.2557 197.352 33.2557V35.2557C198.052 35.2557 198.712 35.0853 199.304 34.7297L198.275 33.0147Z" fill="black" mask="url(#path-1-outside-1_1_9)"/>
</g>
<defs>
<filter id="filter0_d_1_9" x="0.963074" y="0.25" width="203.265" height="50.9545" filterUnits="userSpaceOnUse" color-interpolation-filters="sRGB">
<feFlood flood-opacity="0" result="BackgroundImageFix"/>
<feColorMatrix in="SourceAlpha" type="matrix" values="0 0 0 0 0 0 0 0 0 0 0 0 0 0 0 0 0 0 127 0" result="hardAlpha"/>
<feOffset dy="4"/>
<feGaussianBlur stdDeviation="2"/>
<feComposite in2="hardAlpha" operator="out"/>
<feColorMatrix type="matrix" values="0 0 0 0 0 0 0 0 0 0 0 0 0 0 0 0 0 0 0.25 0"/>
<feBlend mode="normal" in2="BackgroundImageFix" result="effect1_dropShadow_1_9"/>
<feBlend mode="normal" in="SourceGraphic" in2="effect1_dropShadow_1_9" result="shape"/>
</filter>
</defs>
</svg>
